<?xml version="1.0" standalone="no"?>
<svg xmlns:xlink="http://www.w3.org/1999/xlink" id="wave" style="transform:rotate(0deg); transition: 0.3s" viewBox="0 0 1440 230" version="1.1" xmlns="http://www.w3.org/2000/svg"><defs><linearGradient id="sw-gradient-0" x1="0" x2="0" y1="1" y2="0"><stop stop-color="rgba(70, 148, 8, 1)" offset="0%"/><stop stop-color="rgba(70, 148, 8, 1)" offset="100%"/></linearGradient></defs><path style="transform:translate(0, 0px); opacity:1" fill="url(#sw-gradient-0)" d="M0,0L80,30.7C160,61,320,123,480,145.7C640,169,800,153,960,126.5C1120,100,1280,61,1440,49.8C1600,38,1760,54,1920,84.3C2080,115,2240,161,2400,172.5C2560,184,2720,161,2880,138C3040,115,3200,92,3360,69C3520,46,3680,23,3840,34.5C4000,46,4160,92,4320,111.2C4480,130,4640,123,4800,103.5C4960,84,5120,54,5280,65.2C5440,77,5600,130,5760,157.2C5920,184,6080,184,6240,153.3C6400,123,6560,61,6720,42.2C6880,23,7040,46,7200,53.7C7360,61,7520,54,7680,61.3C7840,69,8000,92,8160,92C8320,92,8480,69,8640,65.2C8800,61,8960,77,9120,99.7C9280,123,9440,153,9600,168.7C9760,184,9920,184,10080,161C10240,138,10400,92,10560,69C10720,46,10880,46,11040,49.8C11200,54,11360,61,11440,65.2L11520,69L11520,230L11440,230C11360,230,11200,230,11040,230C10880,230,10720,230,10560,230C10400,230,10240,230,10080,230C9920,230,9760,230,9600,230C9440,230,9280,230,9120,230C8960,230,8800,230,8640,230C8480,230,8320,230,8160,230C8000,230,7840,230,7680,230C7520,230,7360,230,7200,230C7040,230,6880,230,6720,230C6560,230,6400,230,6240,230C6080,230,5920,230,5760,230C5600,230,5440,230,5280,230C5120,230,4960,230,4800,230C4640,230,4480,230,4320,230C4160,230,4000,230,3840,230C3680,230,3520,230,3360,230C3200,230,3040,230,2880,230C2720,230,2560,230,2400,230C2240,230,2080,230,1920,230C1760,230,1600,230,1440,230C1280,230,1120,230,960,230C800,230,640,230,480,230C320,230,160,230,80,230L0,230Z"/></svg>